<svg version="1.0" xmlns="http://www.w3.org/2000/svg" preserveAspectRatio="xMidYMid meet" viewBox="65.87 139.07 1152.63 361.94"> <metadata> Created by potrace 1.15, written by Peter Selinger 2001-2017 </metadata> <g transform="translate(0.000000,640.000000) scale(0.100000,-0.100000)" fill="#000000" stroke="none"> <path d="M2330 4995 c-663 -82 -1232 -482 -1504 -1055 -193 -409 -220 -859 -76 -1291 198 -597 719 -1056 1370 -1208 228 -54 0 -51 4298 -51 4362 0 4080 -4 4337 59 644 158 1155 622 1348 1226 203 633 22 1325 -468 1793 -254 243 -563 409 -915 492 -225 52 -29 50 -4315 49 -3192 -1 -3991 -4 -4075 -14z"/> </g> </svg>